<svg xmlns="http://www.w3.org/2000/svg" viewBox="0 0 100 100">
  <!-- Petals -->
  <path d="M50,50 C60,30 80,20 50,0 C20,20 40,30 50,50 Z" fill="#FF4081" />
  <path d="M50,50 C70,60 80,80 50,100 C20,80 30,60 50,50 Z" fill="#FF4081" />
  <path d="M50,50 C30,60 0,50 0,50 C0,50 30,40 50,50 Z" fill="#FF4081" />
  <path d="M50,50 C60,30 100,50 100,50 C100,50 60,70 50,50 Z" fill="#FF4081" />
  <path d="M50,50 C30,40 20,0 50,0 C80,0 70,40 50,50 Z" fill="#FF4081" />
  <path d="M50,50 C70,40 100,20 100,50 C100,80 70,60 50,50 Z" fill="#FF4081" />
  <path d="M50,50 C30,60 0,80 0,50 C0,20 30,40 50,50 Z" fill="#FF4081" />
  <path d="M50,50 C40,70 20,100 50,100 C80,100 60,70 50,50 Z" fill="#FF4081" />
  
  <!-- Center -->
  <circle cx="50" cy="50" r="12" fill="#FFEB3B" />
  <circle cx="50" cy="50" r="8" fill="#FFC107" />
</svg>
